<svg width="20" height="15" viewBox="0 0 20 15" fill="none" xmlns="http://www.w3.org/2000/svg">
<path d="M16.667 2.45747H3.33299C2.41699 2.45747 1.67499 3.01046 1.67499 3.68658L1.66699 11.0597C1.66699 11.7359 2.41699 12.2888 3.33299 12.2888H16.667C17.583 12.2888 18.333 11.7359 18.333 11.0597V3.68658C18.333 3.01046 17.583 2.45747 16.667 2.45747ZM16.333 5.06904L10.442 7.78531C10.3091 7.84565 10.1561 7.8776 9.99999 7.8776C9.84391 7.8776 9.6909 7.84565 9.55799 7.78531L3.66699 5.06904C3.5846 5.03403 3.51261 4.98713 3.45534 4.93115C3.39807 4.87517 3.35668 4.81125 3.33364 4.74322C3.3106 4.67519 3.30639 4.60443 3.32126 4.53517C3.33613 4.46591 3.36977 4.39957 3.42017 4.34011C3.47058 4.28064 3.53671 4.22928 3.61464 4.18908C3.69256 4.14887 3.78066 4.12066 3.8737 4.10611C3.96673 4.09157 4.06279 4.09099 4.15613 4.10442C4.24948 4.11785 4.3382 4.145 4.41699 4.18427L9.99999 6.75897L15.583 4.18427C15.6618 4.145 15.7505 4.11785 15.8439 4.10442C15.9372 4.09099 16.0332 4.09157 16.1263 4.10611C16.2193 4.12066 16.3074 4.14887 16.3853 4.18908C16.4633 4.22928 16.5294 4.28064 16.5798 4.34011C16.6302 4.39957 16.6639 4.46591 16.6787 4.53517C16.6936 4.60443 16.6894 4.67519 16.6663 4.74322C16.6433 4.81125 16.6019 4.87517 16.5446 4.93115C16.4874 4.98713 16.4154 5.03403 16.333 5.06904Z" fill="url(#paint0_linear_27_530)"/>
<defs>
<linearGradient id="paint0_linear_27_530" x1="9.99999" y1="2.45747" x2="9.99999" y2="12.2888" gradientUnits="userSpaceOnUse">
<stop stop-color="#FFBF00"/>
<stop offset="1" stop-color="#F2A50C"/>
</linearGradient>
</defs>
</svg>
