<svg width="16" height="16" viewBox="0 0 16 16" fill="none" xmlns="http://www.w3.org/2000/svg">
<path d="M1.33302 4C1.69902 4 1.99902 3.7 1.99902 3.334V2.667C2.00002 2.3 2.30002 2 2.66602 2H3.33302C3.69902 2 3.99902 1.7 3.99902 1.334C3.99902 0.967 3.69902 0.667 3.33302 0.667H2.66602C1.55902 0.667 0.666016 1.56 0.666016 2.667V3.334C0.666016 3.7 0.966016 4 1.33302 4ZM3.33302 14H2.66602C2.48945 13.9995 2.32025 13.9292 2.19531 13.8044C2.07037 13.6797 1.99981 13.5106 1.99902 13.334V12.667C1.99902 12.3 1.69902 12.001 1.33302 12.001C0.966016 12.001 0.666016 12.301 0.666016 12.667V13.334C0.666016 14.441 1.55902 15.334 2.66602 15.334H3.33302C3.69902 15.334 3.99902 15.034 3.99902 14.667C3.99902 14.3 3.69902 14.001 3.33302 14.001V14ZM13.333 0.667H12.667C12.3 0.667 12 0.967 12 1.334C12 1.7 12.3 2 12.667 2H13.333C13.7 2 14 2.3 14 2.667V3.334C14 3.7 14.3 4 14.667 4C15.033 4 15.333 3.7 15.333 3.334V2.667C15.333 1.56 14.44 0.667 13.333 0.667ZM14.667 12C14.3 12 14 12.3 14 12.667V13.334C14 13.701 13.7 14.001 13.333 14.001H12.667C12.3 14.001 12 14.301 12 14.667C12 15.034 12.3 15.334 12.667 15.334H13.333C14.44 15.334 15.333 14.441 15.333 13.334V12.667C15.333 12.3 15.033 12.001 14.667 12.001V12ZM12.665 9.914V6.087C12.665 5.607 12.412 5.167 11.999 4.934L8.66502 3.014C8.46292 2.89542 8.23284 2.8329 7.99852 2.8329C7.76419 2.8329 7.53412 2.89542 7.33202 3.014L3.99902 4.926C3.58502 5.166 3.33202 5.606 3.33202 6.086V9.913C3.33202 10.393 3.58502 10.833 3.99902 11.066L7.33202 12.986C7.53412 13.1046 7.76419 13.1671 7.99852 13.1671C8.23284 13.1671 8.46292 13.1046 8.66502 12.986L12 11.067C12.2032 10.9511 12.372 10.7832 12.489 10.5806C12.6061 10.378 12.6671 10.148 12.666 9.914H12.665ZM7.33202 11.447L4.66502 9.914V6.827L7.33202 8.38V11.447ZM7.99902 7.227L5.35902 5.687L7.99902 4.167L10.639 5.687L7.99902 7.227ZM11.332 9.914L8.66502 11.447V8.38L11.332 6.827V9.914Z" fill="#9C9C9C"/>
</svg>
