<svg width="20" height="15" viewBox="0 0 20 15" fill="none" xmlns="http://www.w3.org/2000/svg">
<path d="M16.0245 9.37644L13.9075 9.19801C13.6587 9.17651 13.4066 9.19686 13.17 9.25751C12.9334 9.31817 12.7185 9.41757 12.5415 9.54823L11.0075 10.6785C8.64221 9.79146 6.71963 8.37391 5.51651 6.62994L7.05751 5.493C7.41651 5.22904 7.59151 4.86038 7.53251 4.48509L7.29151 2.93672C7.24415 2.63694 7.04893 2.36046 6.74301 2.15992C6.4371 1.95938 6.04185 1.84878 5.63251 1.84918H4.19151C3.24951 1.84918 2.46651 2.42724 2.52451 3.12105C2.96651 8.36853 8.65751 12.5587 15.7665 12.8846C16.7075 12.9273 17.4915 12.35 17.4915 11.6555V10.593C17.4936 10.2925 17.3449 10.0021 17.0741 9.77749C16.8033 9.55292 16.4295 9.41008 16.0245 9.37644Z" fill="url(#paint0_linear_27_532)"/>
<defs>
<linearGradient id="paint0_linear_27_532" x1="10.0065" y1="1.84918" x2="10.0065" y2="12.8868" gradientUnits="userSpaceOnUse">
<stop stop-color="#FFBF00"/>
<stop offset="1" stop-color="#F2A50C"/>
</linearGradient>
</defs>
</svg>
