<svg width="32" height="32" viewBox="0 0 32 32" fill="none" xmlns="http://www.w3.org/2000/svg">
<circle cx="16" cy="16" r="16" fill="white"/>
<path d="M23.5833 13.375H22.695L20.8533 8.4025C20.7009 7.99249 20.4239 7.63819 20.0597 7.3874C19.6955 7.13662 19.2617 7.0014 18.8167 7H17.0833C16.4875 7 16 7.47812 16 8.0625C16 8.64688 16.4875 9.125 17.0833 9.125H18.8167L20.3983 13.375H15.1875L14.7975 12.3125H14.895C15.4908 12.3125 15.9783 11.8344 15.9783 11.25C15.9783 10.6656 15.4908 10.1875 14.895 10.1875H11.6667C11.0708 10.1875 10.5833 10.6656 10.5833 11.25C10.5833 11.8344 11.0708 12.3125 11.6667 12.3125H12.4792L14.4508 17.625H13.725C13.2483 15.2556 11.2225 13.5025 8.6875 13.3856C5.65417 13.2369 3 15.7125 3 18.6875C3 21.6625 5.38333 24 8.41667 24C11.0817 24 13.2375 22.2044 13.725 19.75H18.275C18.7517 22.1194 20.7775 23.8725 23.3125 23.9894C26.3458 24.1275 29 21.6625 29 18.6769C29 15.7125 26.6167 13.375 23.5833 13.375ZM9.5 19.75H11.4717C11.0167 21.0569 9.73833 21.96 8.2 21.8644C6.58583 21.7687 5.2425 20.43 5.16667 18.8363C5.09083 16.9769 6.5425 15.5 8.41667 15.5C9.8575 15.5 11.0383 16.3819 11.4717 17.625H9.5C8.90417 17.625 8.41667 18.1031 8.41667 18.6875C8.41667 19.2719 8.90417 19.75 9.5 19.75ZM18.275 17.625H16.7583L15.9675 15.5H19.25C18.7733 16.1162 18.4267 16.8281 18.275 17.625ZM23.4533 21.875C21.785 21.8113 20.3767 20.4194 20.3333 18.7725C20.3117 17.7525 20.7558 16.86 21.4708 16.265L22.1425 18.0713C22.3483 18.6238 22.9658 18.9106 23.5292 18.7088C24.0925 18.5069 24.385 17.9012 24.1792 17.3487L23.4967 15.5106L23.5075 15.5C23.9418 15.4855 24.3747 15.5574 24.7799 15.7115C25.1851 15.8656 25.5543 16.0986 25.8651 16.3965C26.1759 16.6944 26.422 17.051 26.5884 17.4448C26.7548 17.8385 26.8381 18.2613 26.8333 18.6875C26.8333 20.515 25.3383 21.9387 23.4533 21.875Z" fill="url(#paint0_linear_102_182)"/>
<defs>
<linearGradient id="paint0_linear_102_182" x1="16" y1="7" x2="16" y2="24" gradientUnits="userSpaceOnUse">
<stop stop-color="#FFB60D"/>
<stop offset="1" stop-color="#E59317"/>
</linearGradient>
</defs>
</svg>
